<?xml version="1.0" encoding="utf-8"?>
<!-- Generator: Adobe Illustrator 16.0.4, SVG Export Plug-In . SVG Version: 6.00 Build 0)  -->
<!DOCTYPE svg PUBLIC "-//W3C//DTD SVG 1.1//EN" "http://www.w3.org/Graphics/SVG/1.1/DTD/svg11.dtd">
<svg version="1.1" xmlns="http://www.w3.org/2000/svg" xmlns:xlink="http://www.w3.org/1999/xlink" x="0px" y="0px"
	 width="640.928px" height="80.017px" viewBox="0 0 640.928 80.017" enable-background="new 0 0 640.928 80.017"
	 xml:space="preserve">
<g id="Background">
</g>
<g id="Stripes">
</g>
<g id="Type_and_Art">
	<g>
		<path fill="#65A6A2" d="M335.424,23.685c-1.067-13.016-11.629-16.43-23.898-16.43s-21.551,4.801-21.551,13.443
			c0,9.922,9.282,12.269,27.846,15.363c13.87,2.347,27.739,5.548,27.739,20.165c0,18.67-16.963,23.792-31.792,23.792
			c-19.311,0-33.394-6.615-34.567-27.099h7.895c1.387,16.003,12.056,19.844,26.673,19.844c11.416,0,23.258-3.094,23.258-15.15
			c0-11.629-13.869-13.016-27.739-15.257c-18.137-2.88-27.846-8.001-27.846-20.271C281.439,5.441,296.803,0,311.526,0
			c15.577,0,31.26,5.548,31.793,23.685H335.424z"/>
		<path fill="#65A6A2" d="M414.221,60.386c-3.201,9.815-11.523,19.417-29.873,19.417c-22.725,0-30.193-15.896-30.193-29.446
			c0-15.47,9.495-29.446,30.193-29.446c14.296,0,31.26,6.188,31.26,31.367h-53.559c0,11.522,8.215,20.911,22.299,20.911
			c13.229,0,19.203-4.375,21.978-12.803H414.221z M407.713,46.303c-2.241-13.656-12.27-18.777-22.832-18.777
			c-10.136,0-21.018,5.228-22.832,18.777H407.713z"/>
		<path fill="#5A3F1D" d="M427.744,1.92h7.896v68.921h48.33v7.255h-56.226V1.92z"/>
		<path fill="#5A3F1D" d="M491.901,1.28h7.895v11.736h-7.895V1.28z M491.901,22.618h7.895v55.479h-7.895V22.618z"/>
		<path fill="#5A3F1D" d="M542.737,20.911c21.338,0,31.473,13.977,31.473,29.446s-10.135,29.446-31.473,29.446
			s-31.473-13.977-31.473-29.446S521.399,20.911,542.737,20.911z M542.737,73.189c14.938,0,23.578-9.496,23.578-22.832
			s-8.641-22.832-23.578-22.832c-14.936,0-23.578,9.496-23.578,22.832S527.801,73.189,542.737,73.189z"/>
		<path fill="#5A3F1D" d="M633.034,42.355c0-10.989-6.721-14.83-16.75-14.83c-15.471,0-22.512,7.895-22.512,20.484v30.086h-7.895
			V22.618h7.895V33.5h0.213c2.348-5.868,10.67-12.589,22.939-12.589c18.457,0,24.004,9.602,24.004,22.832v34.354h-7.895V42.355z"/>
	</g>
	
		<linearGradient id="SVGID_1_" gradientUnits="userSpaceOnUse" x1="-0.791" y1="48.4902" x2="262.436" y2="48.4902" gradientTransform="matrix(0.9998 0.0181 -0.0181 0.9998 2.3388 -7.1341)">
		<stop  offset="0" style="stop-color:#5A3F1D"/>
		<stop  offset="0.0744" style="stop-color:#72562F"/>
		<stop  offset="0.1774" style="stop-color:#8D7043"/>
		<stop  offset="0.2689" style="stop-color:#9D7F50"/>
		<stop  offset="0.339" style="stop-color:#A38554"/>
		<stop  offset="0.5116" style="stop-color:#A08353"/>
		<stop  offset="0.6192" style="stop-color:#987B4E"/>
		<stop  offset="0.7092" style="stop-color:#896F47"/>
		<stop  offset="0.7893" style="stop-color:#755D3D"/>
		<stop  offset="0.8622" style="stop-color:#5A4630"/>
		<stop  offset="0.9302" style="stop-color:#3A2B20"/>
		<stop  offset="0.9338" style="stop-color:#38291F"/>
	</linearGradient>
	<path fill-rule="evenodd" clip-rule="evenodd" fill="url(#SVGID_1_)" d="M261.948,40.596c-2.951-1.513-4.18-1.976-4.824-2.271
		c-1.545-0.706-4.373-2.521-5.388-3.373c-1.018-0.849-4.975-3.849-6.917-4.506c-1.939-0.659-6.638-2.598-11.642-2.411
		c-5.008,0.187-7.393,0.212-11.231,0.788c-3.838,0.577-10.786,1.826-19.63-1.101c-8.852-2.926-23.45-8.75-37.893-13.129
		c-14.445-4.38-17.714-5.904-28.116-7.548C125.911,5.4,116.23,5.289,106.772,6.405c-9.456,1.111-17.848,2.418-30.297,8.913
		c-12.45,6.497-14.751,7.801-19.06,11.208c-4.313,3.413-10.818,9.256-12.401,10.235c-1.582,0.976-6.251,2.866-7.499,3.164
		c-1.247,0.299-3.828,1.863-0.977,2.056c2.85,0.192,3.753-0.146,3.771,0.362c0.017,0.511-8.009,6.937-10.983,8.958
		c-2.974,2.021-8.473,5.396-10.963,6.545c-2.488,1.148-3.51,1.882-4.418,3.022c-0.909,1.137-0.727,2.46,0.634,2.115
		c1.357-0.345,1.222-0.474,1.723-0.482c2.183-1.524,7.779-5.933,9.209-6.729c-3.033,2.684-6.911,6.465-9.398,8.483
		c-2.486,2.015-6.286,4.643-7.359,6.106c-1.075,1.468-3.986,4.67-5.116,5.337c-1.137,0.657-4.652,2.392-3.35,2.968
		c1.297,0.573,1.665,0.572,2.029,0.441c0.369-0.126,0.568-0.448,0.925-0.31c0.357,0.141,2.921-0.337,3.463-0.562
		c0.542-0.227,0.926,0.098,1.334-0.061c0.41-0.156,4.978-1.993,7.08-3.546c2.105-1.556,4.292-2.971,5.199-3.597
		c2.072,0.041,7.552-1.255,11.108-3.33c3.562-2.072,12.362-8.585,15.679-11.858c3.321-3.272,3.788-3.696,4.238-4.086
		c0.455-0.392,1.277-1.233,5.971-1.352c4.701-0.116,14.107-0.698,19.451,0.039c5.343,0.737,13.205,1.483,25.332,4.119
		c4.176,0.907,12.125,2.636,12.79,2.295c1.996-1.028,9.199-2.812,9.199-2.812s-2.642,1.248-4.62,2.354
		c-0.777,0.433-3.084,1.437-3.666,2.247c-0.584,0.82-3.279,2.126-4.022,1.935c-0.74-0.189-2.274,0.669-2.765,1.03
		c-0.489,0.357-1.843,1.491-3.369,1.394c-1.525-0.099-3.536,0.222-4.011,0.859c-0.479,0.642-0.236,1.025-1.901,1.499
		c-1.667,0.469-4.169-0.09-6.802,0.145c-2.636,0.235-2.856,1.595-1.901,2.731c0.953,1.14,5.087,2.861,12.072,4.229
		c6.986,1.361,13.469,0.327,15.542,0.179c2.078-0.153,10.154-1.991,11.596-2.398c1.446-0.403,6.29-2.708,7.234-2.978
		c0.943-0.271,3.52-0.557,4.472-0.718c0.949-0.155,7.625-1.815,9.911-2.064c1.278-0.143,3.641-0.644,5.753-1.191
		c2.112-0.551,7.968-2.409,9.75-3.377c3.841-2.095,6.194,0.161,6.131,1.176c-0.069,1.016-1.055,1.513-3.091,1.296
		c-3.277-0.344-7.194,0.868-9.284,1.303c-2.091,0.435-3.297,1.081-8.142,1.618c3.698,0.664,13.561,2.793,19.443,3.093
		c5.885,0.299,20.32,0.958,30.644-1.555c10.318-2.515,25.733-10.459,28.554-11.785c2.824-1.328,6.485-2.792,10.979-3.328
		c4.49-0.533,9.559-1.309,11.329-1.462c1.772-0.148,3.477-0.825,4.104-1.128c0.631-0.309,1.636-1.078,2.337-1.72
		c0.702-0.64,1.559-0.984,1.95-1.295c0.396-0.312,0.715-0.621,0.503-1.096c-0.652-1.454,0.174-0.489,0.397-0.983
		C264,42.913,264.675,41.996,261.948,40.596z M239.755,36.286c-1.287,0.619-2.731,0.504-3.897,0.463
		c-1.208-0.043-1.56-0.21-2.139-0.452c-0.573-0.243-1.575-0.727-2.846-0.671c-1.271,0.054-1.301,0.17-2.006,0.092
		c-0.707-0.08-0.458-0.642,0.496-0.828c0.958-0.186,2.195-0.522,3.07-0.333c0.876,0.185,1.561,0.157,2.094,0.142
		c0.612-0.017,1.175-0.3,2.491-0.479c1.316-0.181,2.793,0.083,3.175,0.705C240.518,35.456,240.315,36.017,239.755,36.286z
		 M259.727,43.009c0.229,0.004,0.413,0.194,0.408,0.424c-0.004,0.232-0.195,0.415-0.423,0.411c-0.234-0.004-0.416-0.194-0.411-0.426
		C259.305,43.189,259.492,43.004,259.727,43.009z M257.963,42.223c0.304,0.005,0.542,0.255,0.537,0.559
		c-0.006,0.305-0.252,0.542-0.557,0.537s-0.545-0.253-0.54-0.557C257.408,42.458,257.659,42.216,257.963,42.223z M244.886,36.455
		c1.337,0.284,1.767,0.149,2.146,0.005c0.385-0.146,0.521-0.421,1.03-0.607c0.515-0.182,1.172-0.265,1.971-0.261
		c0.834,0.005,1.323,0.304,1.4,0.644c0.111,0.49,0.215,0.485,0.424,0.622c0.21,0.137,0.406,0.261,0.306,0.386
		c-0.134,0.172-0.682,0.067-0.725,0.206c-0.103,0.342-0.65,0.821-1.611,0.67c-1.302-0.208-1.81-0.579-1.962-0.78
		c-0.152-0.2-0.412-0.213-0.817-0.231c-0.401-0.016-1.081-0.125-1.701-0.229C244.724,36.775,244.352,36.343,244.886,36.455z
		 M260.204,45.353c-0.603,0.71-0.858,0.918-1.339,1.166c-0.459,0.235-0.86,0.182-0.307-0.344c0.555-0.528,0.789-0.672,0.846-0.92
		c0.054-0.244-0.331-0.36-0.818,0.025c-0.487,0.387-1.523,0.765-1.987,0.881c-0.445,0.117-0.927-0.163-0.341-0.416
		c0.348-0.151,0.625-0.265,1.009-0.52c0.4-0.262,0.164-0.603-0.287-0.388c-0.447,0.218-1.076,0.533-2.137,0.826
		c-1.534,0.428-3.927,1.023-5.175,1.314c-1.095,0.259-1.622,0.363-2.18,0.515c-0.558,0.147-0.987-0.272-0.289-0.523
		c0.691-0.254,3.538-0.969,4.197-1.141c1.253-0.327,2.516-0.719,3.123-0.907c0.578-0.177,1.074-0.399,1.437-0.582
		c0.338-0.171,0.246-0.45-0.104-0.44c-2.573,0.899-8.273,2.086-9.129,2.17c-0.743,0.075-1.073,0.09-1.165-0.038
		c-0.129-0.176,0.174-0.348,0.386-0.386c1.516-0.271,2.885-0.551,4.119-0.834c0.441-0.107,0.396-0.268,0.15-0.271
		c-2.399,0.235-4.922,0.38-6.928,0.419c-0.006,0-0.008,0-0.014,0c-0.19-0.003-0.481-0.049-0.487-0.24
		c-0.002-0.198,0.422-0.306,0.62-0.31c4.002-0.074,11.65-1.235,12.884-1.543c0.076-0.019,0.27,0.048,0.292,0.065
		c0.191,0.079,0.318,0.252,0.314,0.494c-0.01,0.547,0.812,0.39,1.063,0.355c0.257-0.041,0.653-0.147,0.83,0.124
		c0.176,0.273,0.146,0.418,0.46,0.455c0.459,0.053,0.857-0.144,1.101,0.104C260.594,44.713,260.572,44.918,260.204,45.353z"/>
</g>
</svg>
