<?xml version="1.0" encoding="utf-8"?>
<!-- Generator: Adobe Illustrator 16.0.4, SVG Export Plug-In . SVG Version: 6.00 Build 0)  -->
<!DOCTYPE svg PUBLIC "-//W3C//DTD SVG 1.1//EN" "http://www.w3.org/Graphics/SVG/1.1/DTD/svg11.dtd">
<svg version="1.1" id="Layer_1" xmlns="http://www.w3.org/2000/svg" xmlns:xlink="http://www.w3.org/1999/xlink" x="0px" y="0px"
	 width="621.633px" height="97.418px" viewBox="0 0 621.633 97.418" enable-background="new 0 0 621.633 97.418"
	 xml:space="preserve">
<g id="Background">
</g>
<g id="Stripes">
</g>
<g id="Type_and_Art">
	<g>
		<path fill="#65A6A2" d="M309.521,26.76c-1.067-13.016-11.629-16.43-23.898-16.43s-21.551,4.801-21.551,13.443
			c0,9.922,9.282,12.269,27.846,15.363c13.87,2.347,27.739,5.548,27.739,20.166c0,18.67-16.963,23.791-31.792,23.791
			c-19.311,0-33.394-6.614-34.567-27.098h7.895c1.387,16.002,12.056,19.844,26.673,19.844c11.416,0,23.258-3.094,23.258-15.15
			c0-11.629-13.869-13.016-27.739-15.257c-18.137-2.88-27.846-8.001-27.846-20.271c0-16.644,15.363-22.085,30.086-22.085
			c15.577,0,31.26,5.548,31.793,23.685H309.521z"/>
		<path fill="#65A6A2" d="M388.316,63.461c-3.2,9.814-11.522,19.416-29.873,19.416c-22.725,0-30.192-15.896-30.192-29.445
			c0-15.47,9.495-29.446,30.192-29.446c14.297,0,31.261,6.188,31.261,31.367h-53.56c0,11.522,8.215,20.911,22.299,20.911
			c13.229,0,19.203-4.375,21.979-12.803H388.316z M381.811,49.377c-2.242-13.655-12.271-18.776-22.832-18.776
			c-10.137,0-21.019,5.228-22.832,18.776H381.811z"/>
		<path fill="#5A3F1D" d="M401.84,4.995h7.896v68.921h48.33v7.254H401.84V4.995z"/>
		<path fill="#5A3F1D" d="M465.997,4.355h7.895v11.736h-7.895V4.355z M465.997,25.693h7.895v55.479h-7.895V25.693z"/>
		<path fill="#5A3F1D" d="M516.833,23.986c21.338,0,31.473,13.977,31.473,29.446c0,15.469-10.135,29.445-31.473,29.445
			S485.36,68.902,485.36,53.432C485.36,37.962,495.495,23.986,516.833,23.986z M516.833,76.264c14.938,0,23.578-9.496,23.578-22.832
			S531.77,30.6,516.833,30.6c-14.936,0-23.578,9.496-23.578,22.832S501.897,76.264,516.833,76.264z"/>
		<path fill="#5A3F1D" d="M607.13,45.43c0-10.989-6.721-14.83-16.75-14.83c-15.471,0-22.512,7.895-22.512,20.484V81.17h-7.896
			V25.693h7.896v10.882h0.213c2.348-5.868,10.67-12.589,22.938-12.589c18.457,0,24.005,9.602,24.005,22.832v34.354h-7.896
			L607.13,45.43L607.13,45.43z"/>
	</g>
	
		<linearGradient id="SVGID_1_" gradientUnits="userSpaceOnUse" x1="253.8799" y1="42.4058" x2="17.126" y2="42.4056" gradientTransform="matrix(-0.9996 0.0296 -0.0296 -0.9996 258.655 94.9964)">
		<stop  offset="0" style="stop-color:#5A3F1D"/>
		<stop  offset="0.0744" style="stop-color:#72562F"/>
		<stop  offset="0.1774" style="stop-color:#8D7043"/>
		<stop  offset="0.2689" style="stop-color:#9D7F50"/>
		<stop  offset="0.339" style="stop-color:#A38554"/>
		<stop  offset="0.5116" style="stop-color:#A08353"/>
		<stop  offset="0.6192" style="stop-color:#987B4E"/>
		<stop  offset="0.7092" style="stop-color:#896F47"/>
		<stop  offset="0.7893" style="stop-color:#755D3D"/>
		<stop  offset="0.8622" style="stop-color:#5A4630"/>
		<stop  offset="0.9302" style="stop-color:#3A2B20"/>
		<stop  offset="0.9338" style="stop-color:#38291F"/>
	</linearGradient>
	<path fill="url(#SVGID_1_)" d="M115.329,67.885c0,0-6.422,1.717-8.196,2.67c-0.588,0.316-7.738-1.104-11.495-1.848
		c-10.908-2.164-17.964-2.705-22.763-3.278c-4.799-0.574-13.217,0.103-17.426,0.282c-4.205,0.181-4.928,0.951-5.327,1.309
		c-0.398,0.355-0.81,0.744-3.73,3.729c-2.92,2.985-10.697,8.963-13.855,10.879c-3.154,1.916-8.042,3.168-9.899,3.166
		c-0.803,0.572-2.739,1.875-4.6,3.306c-1.858,1.427-5.919,3.146-6.284,3.291c-0.364,0.149-0.713-0.134-1.196,0.079
		c-0.483,0.21-2.77,0.683-3.092,0.56c-0.324-0.12-0.497,0.175-0.825,0.296c-0.325,0.119-0.654,0.129-1.825-0.365
		c-1.176-0.494,1.946-2.104,2.953-2.715c1.001-0.613,3.558-3.533,4.497-4.863c0.938-1.33,4.299-3.743,6.495-5.59
		c2.195-1.85,5.608-5.299,8.282-7.754c-1.268,0.736-6.21,4.777-8.142,6.18c-0.448,0.014-0.324,0.129-1.535,0.459
		c-1.212,0.332-1.397-0.85-0.602-1.885c0.794-1.035,1.698-1.709,3.909-2.779c2.212-1.07,7.084-4.184,9.716-6.043
		c2.632-1.859,9.718-7.747,9.694-8.203c-0.023-0.457-0.828-0.139-3.383-0.264c-2.557-0.125-0.27-1.57,0.841-1.858
		c1.114-0.288,5.267-2.058,6.668-2.957c1.4-0.901,7.135-6.244,10.943-9.37c3.807-3.124,5.847-4.33,16.895-10.352
		c11.048-6.022,18.546-7.329,27.001-8.48c8.455-1.153,17.13-1.211,26.472,0.094c9.345,1.305,12.299,2.615,25.311,6.307
		c13.012,3.688,26.187,8.669,34.164,11.147c7.975,2.478,14.178,1.247,17.606,0.667c3.428-0.578,5.566-0.639,10.048-0.888
		s8.723,1.413,10.473,1.97c1.751,0.558,5.347,3.18,6.269,3.925c0.923,0.747,4.271,2.745,4.881,2.934s1.778,0.494,4.205,1.773
		c2.429,1.278,2.033,2.226,1.346,3.26c-0.194,0.447-0.984-0.57-0.342,0.888c0,0-0.083,0.704-0.432,0.991
		c-0.347,0.285-1.109,0.607-1.727,1.191c-0.617,0.586-1.504,1.293-2.064,1.578c-0.561,0.283-2.078,0.916-3.659,1.078
		c-1.583,0.165-6.115,0.945-10.13,1.495c-4.015,0.554-7.275,1.925-9.781,3.16c-2.506,1.231-16.187,8.603-25.395,11.022
		c-9.207,2.416-22.15,2.063-27.427,1.889c-5.274-0.172-14.147-1.92-17.472-2.453c4.332-0.559,5.403-1.158,7.27-1.581
		c1.866-0.425,5.355-1.575,8.295-1.319c1.828,0.16,2.707-0.3,2.749-1.212c0.042-0.911-2.106-2.894-5.515-0.956
		c-1.58,0.898-6.795,2.658-8.68,3.186c-1.884,0.527-3.99,1.014-5.133,1.16c-2.045,0.263-8,1.857-8.847,2.014
		c-0.85,0.158-3.152,0.457-3.994,0.714c-0.842,0.257-5.146,2.401-6.434,2.787c-1.287,0.388-8.493,2.166-10.349,2.334
		c-1.857,0.171-7.647,1.202-13.929,0.092c-6.28-1.108-10.011-2.584-10.884-3.59c-0.872-1.003-0.699-2.226,1.659-2.478
		c2.355-0.254,4.606,0.207,6.092-0.242c1.485-0.45,1.261-0.789,1.68-1.371c0.416-0.582,2.212-0.9,3.58-0.838
		c1.368,0.063,2.563-0.973,2.996-1.303c0.433-0.332,1.794-1.125,2.461-0.967c0.667,0.159,3.062-1.056,3.571-1.796
		c0.507-0.739,2.559-1.675,3.248-2.077C112.981,69.047,115.329,67.885,115.329,67.885z M237.109,56.872
		c-0.225-0.218-0.296-0.095-0.71-0.041c-0.413,0.053-0.433-0.139-0.595-0.381c-0.162-0.24-0.446-0.105-0.674-0.066
		c-0.227,0.037-0.535-0.008-0.729-0.289c-0.187-0.27-0.041-0.172-0.509-0.358c-0.467-0.188-0.58-0.096-1.192-0.005
		c-0.814,0.122-2.065,0.514-3.211,0.7c-1.349,0.219-1.595,0.252-2.702,0.383c-1.108,0.132-2.286,0.224-4.178,0.511
		c-1.891,0.285-1.068,0.588,0.093,0.557c1.62-0.043,0.53,0.054,1.74-0.051c2.356-0.207,2.697-0.031,1.847,0.219
		c-0.402,0.117-0.505,0.158-0.975,0.266c-1.309,0.299-0.033,0.475,0.63,0.357c0.893-0.154,2.085-0.504,2.724-0.657
		c0.639-0.152,2.241-0.647,2.718-0.778c0.507-0.137,1.184-0.377,1.677-0.564c0.493-0.186,0.627,0.179,0.261,0.373
		c-0.319,0.168-0.51,0.224-1.023,0.392c-0.542,0.177-0.953,0.278-1.465,0.438c-0.494,0.153-0.925,0.26-1.505,0.444
		s-3.192,0.984-3.81,1.224c-0.62,0.236-0.229,0.605,0.27,0.463c0.497-0.144,0.969-0.246,1.947-0.496
		c1.111-0.281,3.245-0.854,4.61-1.26c0.949-0.281,1.504-0.574,1.903-0.776c0.399-0.2,0.618,0.103,0.263,0.345
		c-0.341,0.234-0.587,0.34-0.895,0.48c-0.523,0.236-0.007,0.566,0.391,0.455c0.413-0.113,1.256-0.553,1.686-0.908
		c0.43-0.354,0.78-0.256,0.732-0.034c-0.047,0.222-0.256,0.353-0.742,0.835c-0.487,0.48-0.072,0.51,0.391,0.455
		s1.422-0.986,1.816-1.682C238.144,56.978,237.334,57.09,237.109,56.872z M219.047,48.867c-0.352-0.549-1.822-0.654-2.998-0.471
		c-1.176,0.183-1.445,0.262-1.919,0.281c-0.478,0.022-1.251,0.139-2.04-0.014c-0.787-0.153-1.89,0.167-2.745,0.351
		c-0.852,0.182-1.065,0.689-0.432,0.748c0.633,0.059,0.659-0.045,1.797-0.115c1.138-0.068,2.042,0.35,2.562,0.557
		c0.52,0.209,0.838,0.352,1.92,0.369c1.046,0.018,2.342,0.098,3.486-0.477C219.175,49.844,219.349,49.338,219.047,48.867z
		 M223.775,50.477c0.559,0.083,1.169,0.169,1.53,0.177c0.36,0.009,0.595,0.017,0.734,0.193c0.14,0.178,0.598,0.502,1.771,0.667
		c0.862,0.121,1.504-0.455,1.591-0.764c0.036-0.123,0.297-0.199,0.33-0.276c0.058-0.132-0.122-0.218-0.122-0.218
		s-0.283-0.019-0.391-0.455c-0.074-0.303-0.519-0.564-1.265-0.555c-0.716,0.01-1.305,0.094-1.76,0.269
		c-0.454,0.172-0.573,0.42-0.914,0.558c-0.339,0.135-0.722,0.264-1.926,0.031C222.875,50.01,223.218,50.393,223.775,50.477z"/>
</g>
</svg>
